<?xml version="1.0" encoding="utf-8"?>
<svg version="1.1" xmlns:xlink="http://www.w3.org/1999/xlink" width="18px" height="12px" xmlns="http://www.w3.org/2000/svg">
  <g transform="matrix(1 0 0 1 -1399 -646 )">
    <path d="M 11.8630041724618 0.639951321279555  L 11.0792767732962 1.42367872044506  C 10.8873435326843 1.61561196105702  10.8913421418637 1.92350486787204  11.0872739916551 2.10744089012517  L 14.3141515994437 5.20636300417246  L 0.526947148817802 5.20636300417246  C 0.263038942976356 5.20636300417246  0.0471140472878993 5.42228789986092  0.0471140472878993 5.68619610570236  L 0.0471140472878993 6.8058066759388  C 0.0471140472878993 7.06971488178025  0.263038942976356 7.28563977746871  0.526947148817802 7.28563977746871  L 14.3141515994437 7.28563977746871  L 11.0872739916551 10.384561891516  C 10.8953407510431 10.5724965229485  10.8913421418637 10.8803894297636  11.0792767732962 11.0683240611961  L 11.8630041724618 11.8520514603616  C 12.0509388038943 12.0399860917942  12.3548331015299 12.0399860917942  12.5427677329624 11.8520514603616  L 17.8129346314325 6.58188456189152  C 18.0008692628651 6.39394993045897  18.0008692628651 6.09005563282337  17.8129346314325 5.90212100139082  L 12.5427677329624 0.639951321279555  C 12.3548331015299 0.45201668984701  12.0509388038943 0.45201668984701  11.8630041724618 0.639951321279555  Z " fill-rule="nonzero" fill="#ff0033" stroke="none" transform="matrix(1 0 0 1 1399 646 )" />
  </g>
</svg>